HIERARCHY
ROOT hip
{
  OFFSET 5.70873 43.8894 -1.52928
  CHANNELS 6 Xposition Yposition Zposition Zrotation Xrotation Yrotation
  JOINT abdomen
  {
    OFFSET 0 5.99393 0.287273
    CHANNELS 6 Xposition Yposition Zposition Zrotation Xrotation Yrotation
    JOINT chest
    {
      OFFSET 0 6.65865 -0.856112
      CHANNELS 6 Xposition Yposition Zposition Zrotation Xrotation Yrotation
      JOINT neck
      {
        OFFSET 0 8.65624 -1.42685
        CHANNELS 6 Xposition Yposition Zposition Zrotation Xrotation Yrotation
        JOINT head
        {
          OFFSET 0 3.80999 -0.190247
          CHANNELS 6 Xposition Yposition Zposition Zrotation Xrotation Yrotation
          End Site
          {
            OFFSET 0 0 0
          }
        }
      }
      JOINT rCollar
      {
        OFFSET -1.4963 7.5744 -1.52136
        CHANNELS 6 Xposition Yposition Zposition Zrotation Xrotation Yrotation
        JOINT rShldr
        {
          OFFSET -5.47506 -0.905672 0.485692
          CHANNELS 6 Xposition Yposition Zposition Zrotation Xrotation Yrotation
          JOINT rForeArm
          {
            OFFSET -11.3069 -0.201091 0.618544
            CHANNELS 6 Xposition Yposition Zposition Zrotation Xrotation Yrotation
            JOINT rHand
            {
              OFFSET -9.61414 -0.254739 3.48553
              CHANNELS 6 Xposition Yposition Zposition Zrotation Xrotation Yrotation
              JOINT rThumb1
              {
                OFFSET 0.176263 -0.07068 1.26622
                CHANNELS 6 Xposition Yposition Zposition Zrotation Xrotation Yrotation
                JOINT rThumb2
                {
                  OFFSET -1.04683 -0.546484 1.82182
                  CHANNELS 6 Xposition Yposition Zposition Zrotation Xrotation Yrotation
                  JOINT rThumb3
                  {
                    OFFSET -0.993472 -0.621916 0.655506
                    CHANNELS 6 Xposition Yposition Zposition Zrotation Xrotation Yrotation
                    End Site
                    {
                      OFFSET -0.996134 -0.66263 0.644615
                    }
                  }
                }
              }
              JOINT rIndex1
              {
                OFFSET -2.64253 0.566363 2.4162
                CHANNELS 6 Xposition Yposition Zposition Zrotation Xrotation Yrotation
                JOINT rIndex2
                {
                  OFFSET -1.39394 -0.635138 0.899356
                  CHANNELS 6 Xposition Yposition Zposition Zrotation Xrotation Yrotation
                  JOINT rIndex3
                  {
                    OFFSET -0.622395 -0.856016 0.402182
                    CHANNELS 6 Xposition Yposition Zposition Zrotation Xrotation Yrotation
                    End Site
                    {
                      OFFSET -0.472476 -0.801802 0.34216
                    }
                  }
                }
              }
              JOINT rMid1
              {
                OFFSET -3.20814 0.514427 1.52547
                CHANNELS 6 Xposition Yposition Zposition Zrotation Xrotation Yrotation
                JOINT rMid2
                {
                  OFFSET -1.56545 -0.497974 0.68919
                  CHANNELS 6 Xposition Yposition Zposition Zrotation Xrotation Yrotation
                  JOINT rMid3
                  {
                    OFFSET -0.679943 -1.17582 0.444246
                    CHANNELS 6 Xposition Yposition Zposition Zrotation Xrotation Yrotation
                    End Site
                    {
                      OFFSET -0.343874 -0.941341 0.267611
                    }
                  }
                }
              }
              JOINT rRing1
              {
                OFFSET -3.47877 0.200518 0.597719
                CHANNELS 6 Xposition Yposition Zposition Zrotation Xrotation Yrotation
                JOINT rRing2
                {
                  OFFSET -1.28208 -0.53155 0.44672
                  CHANNELS 6 Xposition Yposition Zposition Zrotation Xrotation Yrotation
                  JOINT rRing3
                  {
                    OFFSET -0.710288 -0.970167 0.4032
                    CHANNELS 6 Xposition Yposition Zposition Zrotation Xrotation Yrotation
                    End Site
                    {
                      OFFSET -0.403228 -0.950952 0.378354
                    }
                  }
                }
              }
              JOINT rPinky1
              {
                OFFSET -3.42483 -0.278904 -0.240415
                CHANNELS 6 Xposition Yposition Zposition Zrotation Xrotation Yrotation
                JOINT rPinky2
                {
                  OFFSET -1.05787 -0.635999 0.156459
                  CHANNELS 6 Xposition Yposition Zposition Zrotation Xrotation Yrotation
                  JOINT rPinky3
                  {
                    OFFSET -0.42815 -0.754232 0.287187
                    CHANNELS 6 Xposition Yposition Zposition Zrotation Xrotation Yrotation
                    End Site
                    {
                      OFFSET -0.235717 -0.725605 0.279416
                    }
                  }
                }
              }
            }
          }
        }
      }
      JOINT lCollar
      {
        OFFSET 1.4963 7.5744 -1.52136
        CHANNELS 6 Xposition Yposition Zposition Zrotation Xrotation Yrotation
        JOINT lShldr
        {
          OFFSET 5.47506 -0.905672 0.485692
          CHANNELS 6 Xposition Yposition Zposition Zrotation Xrotation Yrotation
          JOINT lForeArm
          {
            OFFSET 11.3069 -0.201091 0.618544
            CHANNELS 6 Xposition Yposition Zposition Zrotation Xrotation Yrotation
            JOINT lHand
            {
              OFFSET 9.61414 -0.254739 3.48553
              CHANNELS 6 Xposition Yposition Zposition Zrotation Xrotation Yrotation
              JOINT lThumb1
              {
                OFFSET -0.176263 -0.07068 1.26622
                CHANNELS 6 Xposition Yposition Zposition Zrotation Xrotation Yrotation
                JOINT lThumb2
                {
                  OFFSET 1.04683 -0.546484 1.82182
                  CHANNELS 6 Xposition Yposition Zposition Zrotation Xrotation Yrotation
                  JOINT lThumb3
                  {
                    OFFSET 0.993472 -0.621916 0.655506
                    CHANNELS 6 Xposition Yposition Zposition Zrotation Xrotation Yrotation
                    End Site
                    {
                      OFFSET 0.996134 -0.66263 0.644615
                    }
                  }
                }
              }
              JOINT lIndex1
              {
                OFFSET 2.64253 0.566363 2.4162
                CHANNELS 6 Xposition Yposition Zposition Zrotation Xrotation Yrotation
                JOINT lIndex2
                {
                  OFFSET 1.39394 -0.635138 0.899356
                  CHANNELS 6 Xposition Yposition Zposition Zrotation Xrotation Yrotation
                  JOINT lIndex3
                  {
                    OFFSET 0.622395 -0.856016 0.402182
                    CHANNELS 6 Xposition Yposition Zposition Zrotation Xrotation Yrotation
                    End Site
                    {
                      OFFSET 0.472476 -0.801802 0.34216
                    }
                  }
                }
              }
              JOINT lMid1
              {
                OFFSET 3.20814 0.514427 1.52547
                CHANNELS 6 Xposition Yposition Zposition Zrotation Xrotation Yrotation
                JOINT lMid2
                {
                  OFFSET 1.56545 -0.497974 0.68919
                  CHANNELS 6 Xposition Yposition Zposition Zrotation Xrotation Yrotation
                  JOINT lMid3
                  {
                    OFFSET 0.679943 -1.17582 0.444246
                    CHANNELS 6 Xposition Yposition Zposition Zrotation Xrotation Yrotation
                    End Site
                    {
                      OFFSET 0.343874 -0.941341 0.267611
                    }
                  }
                }
              }
              JOINT lRing1
              {
                OFFSET 3.47877 0.200518 0.597719
                CHANNELS 6 Xposition Yposition Zposition Zrotation Xrotation Yrotation
                JOINT lRing2
                {
                  OFFSET 1.28208 -0.53155 0.44672
                  CHANNELS 6 Xposition Yposition Zposition Zrotation Xrotation Yrotation
                  JOINT lRing3
                  {
                    OFFSET 0.710288 -0.970167 0.4032
                    CHANNELS 6 Xposition Yposition Zposition Zrotation Xrotation Yrotation
                    End Site
                    {
                      OFFSET 0.403228 -0.950952 0.378354
                    }
                  }
                }
              }
              JOINT lPinky1
              {
                OFFSET 3.42483 -0.278904 -0.240415
                CHANNELS 6 Xposition Yposition Zposition Zrotation Xrotation Yrotation
                JOINT lPinky2
                {
                  OFFSET 1.05787 -0.635999 0.156459
                  CHANNELS 6 Xposition Yposition Zposition Zrotation Xrotation Yrotation
                  JOINT lPinky3
                  {
                    OFFSET 0.42815 -0.754232 0.287187
                    CHANNELS 6 Xposition Yposition Zposition Zrotation Xrotation Yrotation
                    End Site
                    {
                      OFFSET 0.235717 -0.725605 0.279416
                    }
                  }
                }
              }
            }
          }
        }
      }
    }
  }
  JOINT rThigh
  {
    OFFSET -4.17848 -1.02486 0.046356
    CHANNELS 6 Xposition Yposition Zposition Zrotation Xrotation Yrotation
    JOINT rShin
    {
      OFFSET 1.27155 -17.465 -0.237699
      CHANNELS 6 Xposition Yposition Zposition Zrotation Xrotation Yrotation
      JOINT rFoot
      {
        OFFSET 0.529163 -17.3815 -1.19582
        CHANNELS 6 Xposition Yposition Zposition Zrotation Xrotation Yrotation
        JOINT rToe
        {
          OFFSET -0.711591 -4.4863 4.0596
          CHANNELS 6 Xposition Yposition Zposition Zrotation Xrotation Yrotation
          End Site
          {
            OFFSET -0.869915 -1.10655 1.99006
          }
        }
      }
    }
  }
  JOINT lThigh
  {
    OFFSET 4.17848 -1.02486 0.046356
    CHANNELS 6 Xposition Yposition Zposition Zrotation Xrotation Yrotation
    JOINT lShin
    {
      OFFSET -1.27155 -17.465 -0.237699
      CHANNELS 6 Xposition Yposition Zposition Zrotation Xrotation Yrotation
      JOINT lFoot
      {
        OFFSET -0.529163 -17.3815 -1.19582
        CHANNELS 6 Xposition Yposition Zposition Zrotation Xrotation Yrotation
        JOINT lToe
        {
          OFFSET 0.711591 -4.4863 4.0596
          CHANNELS 6 Xposition Yposition Zposition Zrotation Xrotation Yrotation
          End Site
          {
            OFFSET 0.869915 -1.10655 1.99006
          }
        }
      }
    }
  }
}
MOTION
Frames:	4
Frame Time:	0.0333333
-2.25065 43.8227 -1.46015 3.81017 -4.67291 -3.55562 2.22045e-016 5.99393 0.287273 -3.4311 0.608411 -0.944088 0 6.65865 -0.856112 -6.85237 1.27216 -1.85024 0 8.65624 -1.42685 3.54269 -0.0608188 -11.0289 0 3.80999 -0.190247 -2.38751 2.32488 -13.3078 -1.4963 7.5744 -1.52136 3.15803 -0.0520343 3.41334 -5.47506 -0.905672 0.485692 85.5707 -7.67691 -9.82544 -11.3069 -0.201091 0.618544 -0.431417 -12.9822 13.746 -9.61414 -0.254739 3.48553 -7.00191 3.9809 6.1164 0.176263 -0.07068 1.26622 -0.882529 0.973597 -2.69655 -1.04683 -0.546484 1.82182 -0.883018 0.973762 -2.69652 -0.993472 -0.621916 0.655506 -0.882778 0.97361 -2.69629 -2.64253 0.566363 2.4162 5.39259 1.39446 -0.858267 -1.39394 -0.635138 0.899356 5.39117 1.39402 -0.857995 -0.622395 -0.856016 0.402182 5.39002 1.39393 -0.858252 -3.20814 0.514427 1.52547 5.33881 1.59853 -0.832752 -1.56545 -0.497974 0.68919 5.33943 1.59915 -0.833016 -0.679943 -1.17582 0.444246 5.33959 1.59893 -0.833254 -3.47877 0.200518 0.597719 5.25255 1.76571 -1.03734 -1.28208 -0.53155 0.44672 5.25449 1.7666 -1.03839 -0.710288 -0.970167 0.4032 5.2548 1.76674 -1.03817 -3.42483 -0.278904 -0.240415 5.21689 1.90725 -0.964913 -1.05787 -0.635999 0.156459 5.21931 1.90808 -0.965602 -0.42815 -0.754232 0.287187 5.21866 1.90802 -0.96547 1.4963 7.5744 -1.52136 3.14492 0.360771 3.39543 5.47506 -0.905672 0.485692 -84.3186 -5.17384 8.13506 11.3069 -0.201091 0.618544 -30.1803 6.35291 -94.8695 9.61414 -0.254739 3.48553 -7.83172 -44.7975 -13.4359 -0.176263 -0.07068 1.26622 -1.46499 -0.399016 -2.59994 1.04683 -0.546484 1.82182 -1.46551 -0.399239 -2.59983 0.993472 -0.621916 0.655506 -1.46521 -0.399135 -2.59963 2.64253 0.566363 2.4162 22.462 -9.29241 -7.48166 1.39394 -0.635138 0.899356 4.95804 -1.75431 -1.91908 0.622395 -0.856016 0.402182 4.9569 -1.75418 -1.9191 3.20814 0.514427 1.52547 28.7832 -13.755 -8.69591 1.56545 -0.497974 0.68919 4.88867 -1.95427 -1.89849 0.679943 -1.17582 0.444246 4.88877 -1.95413 -1.89878 3.47877 0.200518 0.597719 28.4079 -15.6956 -7.26156 1.28208 -0.53155 0.44672 4.74272 -2.09475 -2.09719 0.710288 -0.970167 0.4032 4.74304 -2.0949 -2.09707 3.42483 -0.278904 -0.240415 30.86 -17.5147 -0.0295793 1.05787 -0.635999 0.156459 4.70674 -2.23711 -2.02921 0.42815 -0.754232 0.287187 4.70619 -2.23704 -2.02894 -4.17848 -1.02486 0.046356 -18.8053 -7.14444 -3.90048 1.27155 -17.465 -0.237699 0.758497 7.8478 0.986176 0.529163 -17.3815 -1.19582 14.6582 3.94315 -7.47601 -0.711591 -4.4863 4.0596 -0.360806 -2.6495 0.0626952 4.17848 -1.02486 0.046356 -7.75287 9.20567 -5.09083 -1.27155 -17.465 -0.237699 0.0963312 -2.41084 0.514724 -0.529163 -17.3815 -1.19582 6.82844 -1.86586 10.3944 0.711591 -4.4863 4.0596 0.0100239 -0.103432 0.00546472 
-2.25081 43.8201 -1.44452 3.79864 -4.68323 -3.55633 -1.11022e-016 5.99393 0.287273 -3.42243 0.567694 -0.969219 0 6.65865 -0.856112 -6.83535 1.19209 -1.90298 0 8.65624 -1.42685 3.55445 0.0373224 -10.9986 8.88178e-016 3.80999 -0.190247 -2.38865 2.2183 -13.2693 -1.4963 7.5744 -1.52136 3.22477 -0.0525231 3.39912 -5.47506 -0.905672 0.485692 85.4677 -7.65973 -9.75523 -11.3069 -0.201091 0.618544 -0.415562 -12.9544 13.7707 -9.61414 -0.254739 3.48553 -6.99441 3.99186 6.05252 0.176263 -0.07068 1.26622 -0.882505 0.973584 -2.69657 -1.04683 -0.546484 1.82182 -0.883006 0.973763 -2.69651 -0.993472 -0.621916 0.655506 -0.882762 0.973613 -2.69629 -2.64253 0.566363 2.4162 5.39261 1.39447 -0.85828 -1.39394 -0.635138 0.899356 5.39115 1.39402 -0.85799 -0.622395 -0.856016 0.402182 5.39 1.39393 -0.85825 -3.20814 0.514427 1.52547 5.33881 1.59854 -0.832758 -1.56545 -0.497974 0.68919 5.33946 1.59915 -0.833022 -0.679943 -1.17582 0.444246 5.33959 1.59894 -0.833239 -3.47877 0.200518 0.597719 5.25254 1.76573 -1.03734 -1.28208 -0.53155 0.44672 5.25447 1.76661 -1.03838 -0.710288 -0.970167 0.4032 5.25481 1.76674 -1.03816 -3.42483 -0.278904 -0.240415 5.21692 1.90726 -0.964909 -1.05787 -0.635999 0.156459 5.2193 1.90807 -0.96559 -0.42815 -0.754232 0.287187 5.21867 1.90802 -0.965474 1.4963 7.5744 -1.52136 3.17667 0.355986 3.36091 5.47506 -0.905672 0.485692 -84.367 -5.19174 8.10586 11.3069 -0.201091 0.618544 -30.1816 6.31668 -94.9137 9.61414 -0.254739 3.48553 -7.88113 -44.8202 -13.4355 -0.176263 -0.07068 1.26622 -1.46499 -0.399017 -2.59996 1.04683 -0.546484 1.82182 -1.46551 -0.399244 -2.59981 0.993472 -0.621916 0.655506 -1.46521 -0.399139 -2.59965 2.64253 0.566363 2.4162 22.462 -9.29242 -7.48165 1.39394 -0.635138 0.899356 4.95804 -1.75431 -1.91908 0.622395 -0.856016 0.402182 4.95691 -1.75419 -1.9191 3.20814 0.514427 1.52547 28.7832 -13.755 -8.69591 1.56545 -0.497974 0.68919 4.88865 -1.95426 -1.89848 0.679943 -1.17582 0.444246 4.88877 -1.95413 -1.89878 3.47877 0.200518 0.597719 28.4079 -15.6956 -7.26156 1.28208 -0.53155 0.44672 4.74271 -2.09475 -2.09718 0.710288 -0.970167 0.4032 4.74304 -2.0949 -2.09707 3.42483 -0.278904 -0.240415 30.86 -17.5147 -0.0295686 1.05787 -0.635999 0.156459 4.70672 -2.23711 -2.02918 0.42815 -0.754232 0.287187 4.70619 -2.23704 -2.02894 -4.17848 -1.02486 0.046356 -18.8024 -7.15503 -3.89023 1.27155 -17.465 -0.237699 0.767371 7.94235 0.970978 0.529163 -17.3815 -1.19582 14.6549 3.87265 -7.45915 -0.711591 -4.4863 4.0596 -0.360812 -2.64949 0.0627041 4.17848 -1.02486 0.046356 -7.74289 9.26377 -5.01793 -1.27155 -17.465 -0.237699 0.0951282 -2.41751 0.511764 -0.529163 -17.3815 -1.19582 6.85317 -1.96967 10.335 0.711591 -4.4863 4.0596 0.0074607 -0.0927227 0.00492545 
-2.25057 43.8172 -1.43372 3.78629 -4.68831 -3.53963 0 5.99393 0.287273 -3.41765 0.531957 -1.00079 0 6.65865 -0.856112 -6.82597 1.12257 -1.96823 0 8.65624 -1.42685 3.58595 0.142008 -10.9843 0 3.80999 -0.190247 -2.39614 2.0868 -13.2528 -1.4963 7.5744 -1.52136 3.29937 -0.0523391 3.37804 -5.47506 -0.905672 0.485692 85.3532 -7.64141 -9.66637 -11.3069 -0.201091 0.618544 -0.399641 -12.9254 13.8009 -9.61414 -0.254739 3.48553 -6.96118 3.97862 5.97622 0.176263 -0.07068 1.26622 -0.882516 0.973556 -2.69656 -1.04683 -0.546484 1.82182 -0.883019 0.973777 -2.69651 -0.993472 -0.621916 0.655506 -0.882748 0.973612 -2.69628 -2.64253 0.566363 2.4162 5.3926 1.39447 -0.858276 -1.39394 -0.635138 0.899356 5.39117 1.39402 -0.857986 -0.622395 -0.856016 0.402182 5.39 1.39394 -0.858259 -3.20814 0.514427 1.52547 5.33881 1.59855 -0.832752 -1.56545 -0.497974 0.68919 5.33943 1.59915 -0.833012 -0.679943 -1.17582 0.444246 5.3396 1.59894 -0.833249 -3.47877 0.200518 0.597719 5.25254 1.76573 -1.03733 -1.28208 -0.53155 0.44672 5.25449 1.7666 -1.03839 -0.710288 -0.970167 0.4032 5.25479 1.76674 -1.03816 -3.42483 -0.278904 -0.240415 5.2169 1.90727 -0.964912 -1.05787 -0.635999 0.156459 5.2193 1.90807 -0.965582 -0.42815 -0.754232 0.287187 5.21866 1.90803 -0.965463 1.4963 7.5744 -1.52136 3.21395 0.351653 3.33024 5.47506 -0.905672 0.485692 -84.4389 -5.2049 8.06282 11.3069 -0.201091 0.618544 -30.1839 6.26946 -94.9585 9.61414 -0.254739 3.48553 -7.91812 -44.7917 -13.4343 -0.176263 -0.07068 1.26622 -1.46498 -0.39902 -2.59997 1.04683 -0.546484 1.82182 -1.46551 -0.399245 -2.59981 0.993472 -0.621916 0.655506 -1.46521 -0.399147 -2.59962 2.64253 0.566363 2.4162 22.462 -9.29243 -7.48165 1.39394 -0.635138 0.899356 4.95804 -1.75432 -1.91908 0.622395 -0.856016 0.402182 4.95691 -1.75419 -1.91909 3.20814 0.514427 1.52547 28.7832 -13.755 -8.69592 1.56545 -0.497974 0.68919 4.88865 -1.95426 -1.89849 0.679943 -1.17582 0.444246 4.88878 -1.95413 -1.89877 3.47877 0.200518 0.597719 28.4079 -15.6956 -7.26157 1.28208 -0.53155 0.44672 4.74271 -2.09476 -2.09716 0.710288 -0.970167 0.4032 4.74304 -2.0949 -2.09706 3.42483 -0.278904 -0.240415 30.86 -17.5147 -0.0295686 1.05787 -0.635999 0.156459 4.70672 -2.23712 -2.0292 0.42815 -0.754232 0.287187 4.70619 -2.23705 -2.02894 -4.17848 -1.02486 0.046356 -18.7988 -7.16792 -3.86779 1.27155 -17.465 -0.237699 0.776314 8.02706 0.95503 0.529163 -17.3815 -1.19582 14.6551 3.80971 -7.45766 -0.711591 -4.4863 4.0596 -0.360808 -2.6495 0.0627112 4.17848 -1.02486 0.046356 -7.73702 9.26897 -4.92504 -1.27155 -17.465 -0.237699 0.0938086 -2.33277 0.502541 -0.529163 -17.3815 -1.19582 6.8894 -2.13325 10.2507 0.711591 -4.4863 4.0596 0.00489473 -0.0820537 0.00439445 
-2.2504 43.8143 -1.42342 3.77449 -4.7077 -3.52308 2.22045e-016 5.99393 0.287273 -3.41706 0.493492 -1.02894 -4.44089e-016 6.65865 -0.856112 -6.82514 1.04737 -2.02675 0 8.65624 -1.42685 3.61872 0.209325 -10.9952 0 3.80999 -0.190247 -2.41292 2.02982 -13.2722 -1.4963 7.5744 -1.52136 3.36135 -0.0521954 3.36736 -5.47506 -0.905672 0.485692 85.2642 -7.64485 -9.62879 -11.3069 -0.201091 0.618544 -0.403795 -12.9029 13.7945 -9.61414 -0.254739 3.48553 -6.93525 3.94961 5.94594 0.176263 -0.07068 1.26622 -0.882501 0.973497 -2.69655 -1.04683 -0.546484 1.82182 -0.883026 0.973779 -2.69651 -0.993472 -0.621916 0.655506 -0.882781 0.973619 -2.69628 -2.64253 0.566363 2.4162 5.3926 1.39446 -0.858267 -1.39394 -0.635138 0.899356 5.39115 1.39404 -0.857988 -0.622395 -0.856016 0.402182 5.39002 1.39393 -0.85825 -3.20814 0.514427 1.52547 5.33878 1.59858 -0.832761 -1.56545 -0.497974 0.68919 5.33949 1.59916 -0.83302 -0.679943 -1.17582 0.444246 5.33959 1.59895 -0.833244 -3.47877 0.200518 0.597719 5.25253 1.76575 -1.03735 -1.28208 -0.53155 0.44672 5.25449 1.76661 -1.03839 -0.710288 -0.970167 0.4032 5.25482 1.76675 -1.03816 -3.42483 -0.278904 -0.240415 5.2169 1.90729 -0.964917 -1.05787 -0.635999 0.156459 5.21928 1.90809 -0.965584 -0.42815 -0.754232 0.287187 5.21867 1.90804 -0.96546 1.4963 7.5744 -1.52136 3.24457 0.349989 3.31867 5.47506 -0.905672 0.485692 -84.4895 -5.20954 8.04666 11.3069 -0.201091 0.618544 -30.1867 6.23055 -94.9769 9.61414 -0.254739 3.48553 -7.95369 -44.7369 -13.4114 -0.176263 -0.07068 1.26622 -1.46499 -0.399026 -2.59996 1.04683 -0.546484 1.82182 -1.46552 -0.399254 -2.59983 0.993472 -0.621916 0.655506 -1.46522 -0.399154 -2.59963 2.64253 0.566363 2.4162 22.462 -9.29245 -7.48165 1.39394 -0.635138 0.899356 4.95804 -1.75433 -1.91906 0.622395 -0.856016 0.402182 4.95691 -1.7542 -1.91909 3.20814 0.514427 1.52547 28.7832 -13.755 -8.69592 1.56545 -0.497974 0.68919 4.88866 -1.95426 -1.89848 0.679943 -1.17582 0.444246 4.88879 -1.95413 -1.89877 3.47877 0.200518 0.597719 28.4079 -15.6956 -7.26157 1.28208 -0.53155 0.44672 4.74272 -2.09477 -2.09716 0.710288 -0.970167 0.4032 4.74304 -2.0949 -2.09706 3.42483 -0.278904 -0.240415 30.86 -17.5147 -0.0295743 1.05787 -0.635999 0.156459 4.70673 -2.23714 -2.02919 0.42815 -0.754232 0.287187 4.70619 -2.23704 -2.02895 -4.17848 -1.02486 0.046356 -18.803 -7.17392 -3.86939 1.27155 -17.465 -0.237699 0.794443 8.12781 0.944886 0.529163 -17.3815 -1.19582 14.6475 3.7423 -7.44148 -0.711591 -4.4863 4.0596 -0.360823 -2.6495 0.0627272 4.17848 -1.02486 0.046356 -7.72853 9.27969 -4.93158 -1.27155 -17.465 -0.237699 0.0990122 -2.27541 0.524435 -0.529163 -17.3815 -1.19582 6.88002 -2.18318 10.2264 0.711591 -4.4863 4.0596 0.00556142 -0.11198 0.0059259 
